<svg id="Warstwa_1" data-name="Warstwa 1" xmlns="http://www.w3.org/2000/svg" viewBox="0 0 503.93 503.93"><defs><style>.cls-1{fill:#fb7ba2;}.cls-2{font-size:66.72px;stroke:#6c6c6c;stroke-miterlimit:10;stroke-width:0.98px;font-family:Jaapokkienchance-Regular, Jaapokki enchance;}.cls-2,.cls-4{fill:#6c6c6c;}.cls-3{font-size:79.68px;font-family:AmaticSC-Regular, Amatic SC;}.cls-3,.cls-5{fill:#fff;}</style></defs><rect class="cls-1" x="76.95" y="76.56" width="356.33" height="356.33" transform="translate(-108.55 252.24) rotate(-45)"/><text class="cls-2" transform="translate(201.5 111.1)">DO</text><text class="cls-3" transform="translate(143.54 189.43) scale(1.21 1)">SŁOWNIE</text><path class="cls-4" d="M335.83,223.92s4.44-9-1.47-10.24-31,24.69-34.88,29.21-13.6,11.65-43.46,56.7-32.21,57.09-36.65,58-10.05-4.22-18.92,0-13.3,12.94-18.62,22.58-9.14,14.14-14.48,17.16c-5.95,3.35,4.7,2.37,11.23,3.61,10.59,2,26.31,1.93,32.22-.6,5.62-2.41,12.71-12.35,13.89-22.58s-1.48-11.74.89-15.06,64.73-65.32,82.17-90.61S334.84,226.51,335.83,223.92Z" transform="translate(-3.16 -2.76)"/><path class="cls-5" d="M166,240.91a39.62,39.62,0,0,1,5.25-4.3c-4.43-6.74-7-12.75-4.92-16.17,1.87-3.13,3.1-3.89,3.87-3.87.26-.16.53-.32.83-.48,4.38-2.44,12.63,2.48,21.23,9.34,2.08-1,3-1,4.49,0s.27,2.8-.28,3.46c7.2,6.14,14.25,13,19.08,17.47,11.57,10.67,24.05,26.45,31.26,32.77,1.84,1.6,1.86,3.19,1,4.64a261,261,0,0,1,16.17,21.51c6.91,9.92,46.89,48.09,46.89,48.09l-1.2,2.11c14.12,20.13,24.86,16.36,24.86,16.36-3,15.63,9.7,35,9.7,35-15.33-14.43-36.67-16.84-36.67-16.84a33.66,33.66,0,0,0-12.32-25.25c-2.41-2.1-3.91,0-5.71,0s-2.71-4.81-6.92-10.22-16.83-21-31.26-34a178.66,178.66,0,0,1-20.06-21.11c-1.32.47-2.74.19-4.21-1.4-6.52-7-21.48-20.36-31.79-32.25-5.26-6.06-14-15.5-20.62-24.45l-2.54,1.47c4.68,4.51,28.57,34.34,33.75,42.17,5.3,8-4.11,4.31-4.11,4.31-9.15-13.72-33.2-41.83-35.66-46.45C165.42,241.73,165.51,241.13,166,240.91Z" transform="translate(-3.16 -2.76)"/></svg>