<svg id="Warstwa_1" data-name="Warstwa 1" xmlns="http://www.w3.org/2000/svg" viewBox="0 0 158.51 158.51"><defs><style>.cls-1{fill:#fb7ba2;}</style></defs><path class="cls-1" d="M123.42,12.91A22.21,22.21,0,0,1,145.6,35.09v88.33a22.21,22.21,0,0,1-22.18,22.18H35.09a22.21,22.21,0,0,1-22.18-22.18V35.09A22.21,22.21,0,0,1,35.09,12.91h88.33m0-12.91H35.09A35.09,35.09,0,0,0,0,35.09v88.33a35.09,35.09,0,0,0,35.09,35.09h88.33a35.09,35.09,0,0,0,35.09-35.09V35.09A35.09,35.09,0,0,0,123.42,0Z" transform="translate(0 0)"/><path class="cls-1" d="M79.26,55.84A23.42,23.42,0,1,1,55.84,79.26,23.44,23.44,0,0,1,79.26,55.84m0-12.91a36.33,36.33,0,1,0,36.32,36.33A36.32,36.32,0,0,0,79.26,42.93Z" transform="translate(0 0)"/><path class="cls-1" d="M130.33,22a4,4,0,1,0,4,4,4,4,0,0,0-4-4Z" transform="translate(0 0)"/></svg>