<svg id="Warstwa_1" data-name="Warstwa 1" xmlns="http://www.w3.org/2000/svg" viewBox="0 0 193.53 153.24"><defs><style>.cls-1{fill:#fb7ba2;}</style></defs><path class="cls-1" d="M177.3,12.79a3.45,3.45,0,0,1,3.45,3.44V137a3.45,3.45,0,0,1-3.45,3.44H16.23A3.44,3.44,0,0,1,12.79,137V16.23a3.44,3.44,0,0,1,3.44-3.44H177.3M177.3,0H16.23A16.23,16.23,0,0,0,0,16.23V137a16.23,16.23,0,0,0,16.23,16.23H177.3A16.23,16.23,0,0,0,193.53,137V16.23A16.23,16.23,0,0,0,177.3,0Z" transform="translate(0 0)"/><path class="cls-1" d="M176.24,12.79A1.72,1.72,0,0,1,178,14a1.72,1.72,0,0,1-.52,2.12l-79.47,71a1.87,1.87,0,0,1-1.28.49,1.89,1.89,0,0,1-1.29-.49L16,16.15A1.72,1.72,0,0,1,15.49,14a1.72,1.72,0,0,1,1.8-1.24h159m0-12.79h-159C3.78,0-2.59,16.69,7.49,25.69L87,96.65a14.7,14.7,0,0,0,19.59,0l79.48-71c10.08-9,3.71-25.69-9.8-25.69Z" transform="translate(0 0)"/></svg>